# xmcd
#
# Track frame offsets:
#	150
#	12958
#	50633
#	73313
#	93616
#	114007
#	144507
#	170298
#	199971
#
# Disc length: 2788 seconds
# Revision: 5
# Processed by: cddbd v1.5.2PL0 Copyright (c) Steve Scherf et al.
# Submitted via: dBpowerAMP V12.0
#
DISCID=7d0ae209
DTITLE=Dżem - Detox
DYEAR=1991
DGENRE=Blues
TTITLE0=Śmiech czy łzy
TTITLE1=Ostatnie Widzenie
TTITLE2=Mamy forsę, mamy czas
TTITLE3=Jak Malowany Ptak
TTITLE4=Czarny Chleb
TTITLE5=Detox
TTITLE6=Sen O Victorii
TTITLE7=List Do M.
TTITLE8=Letni spacer z Agnieszką
EXTD=
EXTT0=
EXTT1=
EXTT2=
EXTT3=
EXTT4=
EXTT5=
EXTT6=
EXTT7=
EXTT8=
PLAYORDER=
